<svg xmlns="http://www.w3.org/2000/svg" xmlns:xlink="http://www.w3.org/1999/xlink" width="128" height="128"><g transform="translate(0 0)"><path d="M0 0h128v128H0z" fill="#fff"/><path d="M3.84 3.7h120v120h-120z" stroke="#0c7cba" stroke-width="9" fill="#fff"/><path d="M13.4.78h102.88v115.85H13.38z" fill="none"/><use xlink:href="#a" transform="matrix(1,0,0,1,13.38855701952204,0.777134211713232) translate(31.676666666666666 41.54666666666667)"/><use xlink:href="#b" transform="matrix(1,0,0,1,13.38855701952204,0.777134211713232) translate(0.05222222222222683 78.69800000000001)"/><use xlink:href="#c" transform="matrix(1,0,0,1,13.38855701952204,0.777134211713232) translate(34.06222222222222 115.84933333333333)"/><defs><path fill="#3aa6dd" d="M150 12c-50 0-89-42-89-92 0-51 39-93 89-93s89 42 89 93c0 50-39 92-89 92" id="d"/><path fill="#3aa6dd" d="M214-710h96L109 160H13" id="e"/><g id="a"><use transform="matrix(0.042222222222222223,0,0,0.042222222222222223,0,0)" xlink:href="#d"/><use transform="matrix(0.042222222222222223,0,0,0.042222222222222223,12.666666666666668,0)" xlink:href="#d"/><use transform="matrix(0.042222222222222223,0,0,0.042222222222222223,25.333333333333336,0)" xlink:href="#e"/></g><path fill="#3aa6dd" d="M357-289c-1-62-8-94-61-94-25 0-53 16-84 48V0H65v-496h120l10 64h4c39-36 78-76 150-76 74 0 112 32 137 83 41-39 81-83 156-83 113 0 155 84 155 200V0H650v-289c-1-62-8-94-61-94-25 0-53 16-85 48V0H357v-289" id="f"/><path fill="#3aa6dd" d="M278 12C125 12 36-90 36-248s89-260 242-260c152 0 241 102 241 260S430 12 278 12zm0-401c-69 0-91 65-91 141s22 141 91 141c68 0 91-66 91-141s-23-141-91-141" id="g"/><path fill="#3aa6dd" d="M12-496h148c35 129 71 255 103 387h4c30-134 68-259 103-387h141L349 0H179" id="h"/><path fill="#3aa6dd" d="M287 12C128 12 36-86 36-248c0-153 86-255 234-260 163-6 229 133 205 300H178c9 112 149 136 236 75l49 89c-44 30-107 56-176 56zm69-311c-1-57-23-99-83-97-56 2-88 40-96 97h179" id="i"/><g id="b"><use transform="matrix(0.042222222222222223,0,0,0.042222222222222223,0,0)" xlink:href="#f"/><use transform="matrix(0.042222222222222223,0,0,0.042222222222222223,36.184444444444445,0)" xlink:href="#g"/><use transform="matrix(0.042222222222222223,0,0,0.042222222222222223,59.28,0)" xlink:href="#h"/><use transform="matrix(0.042222222222222223,0,0,0.042222222222222223,81.02444444444444,0)" xlink:href="#i"/></g><path fill="#3aa6dd" d="M256 12C136 11 86-60 85-180v-201H17v-109l76-6 17-132h122v132h119v115H232v199c-8 71 56 94 111 69L366-6c-31 9-67 19-110 18" id="j"/><path fill="#3aa6dd" d="M415-148C416-3 245 40 110-7 76-20 46-36 21-57l66-92c39 28 72 46 128 52 64 7 83-58 31-81-84-38-196-56-200-175-4-140 166-184 290-135 29 12 54 27 75 43l-66 88c-30-22-61-38-105-42-63-5-71 55-26 75 86 37 200 53 201 176" id="k"/><g id="c"><use transform="matrix(0.042222222222222223,0,0,0.042222222222222223,0,0)" xlink:href="#j"/><use transform="matrix(0.042222222222222223,0,0,0.042222222222222223,16.171111111111113,0)" xlink:href="#k"/></g></defs></g></svg>